<svg xmlns="http://www.w3.org/2000/svg" viewBox="0 0 190 100">
  <!-- stripes -->
  <rect width="190" height="100" fill="#B22234"/>
  <g fill="#FFFFFF">
    <rect y="7.69" width="190" height="7.69"/>
    <rect y="23.07" width="190" height="7.69"/>
    <rect y="38.46" width="190" height="7.69"/>
    <rect y="53.84" width="190" height="7.69"/>
    <rect y="69.23" width="190" height="7.69"/>
    <rect y="84.61" width="190" height="7.69"/>
  </g>

  <!-- canton -->
  <rect width="76" height="53.85" fill="#3C3B6E"/>

  <!-- stars (simplified for favicon) -->
  <g fill="#FFFFFF">
    <!-- row 1 -->
    <circle cx="6" cy="6" r="1.5"/>
    <circle cx="18" cy="6" r="1.5"/>
    <circle cx="30" cy="6" r="1.5"/>
    <circle cx="42" cy="6" r="1.5"/>
    <circle cx="54" cy="6" r="1.5"/>
    <circle cx="66" cy="6" r="1.5"/>

    <!-- row 2 -->
    <circle cx="12" cy="12" r="1.5"/>
    <circle cx="24" cy="12" r="1.5"/>
    <circle cx="36" cy="12" r="1.5"/>
    <circle cx="48" cy="12" r="1.5"/>
    <circle cx="60" cy="12" r="1.5"/>

    <!-- row 3 -->
    <circle cx="6" cy="18" r="1.5"/>
    <circle cx="18" cy="18" r="1.5"/>
    <circle cx="30" cy="18" r="1.5"/>
    <circle cx="42" cy="18" r="1.5"/>
    <circle cx="54" cy="18" r="1.5"/>
    <circle cx="66" cy="18" r="1.5"/>

    <!-- row 4 -->
    <circle cx="12" cy="24" r="1.5"/>
    <circle cx="24" cy="24" r="1.5"/>
    <circle cx="36" cy="24" r="1.5"/>
    <circle cx="48" cy="24" r="1.5"/>
    <circle cx="60" cy="24" r="1.5"/>

    <!-- row 5 -->
    <circle cx="6" cy="30" r="1.5"/>
    <circle cx="18" cy="30" r="1.5"/>
    <circle cx="30" cy="30" r="1.5"/>
    <circle cx="42" cy="30" r="1.5"/>
    <circle cx="54" cy="30" r="1.5"/>
    <circle cx="66" cy="30" r="1.5"/>
  </g>
</svg>
